<svg xmlns="http://www.w3.org/2000/svg" xmlns:xlink="http://www.w3.org/1999/xlink" version="1.1" width="500" height="100" viewBox="0 0 1000 1000" xml:space="preserve">
<desc>Created with Fabric.js 3.5.0</desc>
<defs>
</defs>
<rect x="0" y="0" width="100%" height="100%" fill="#971729"/>
<g transform="matrix(3.0167 0 0 7.3858 499.2639 498.5415)" id="117107">
<g style="" vector-effect="non-scaling-stroke">
		<g transform="matrix(1 0 0 1 -3.0937 14.5716)">
<path style="stroke: none; stroke-width: 1; stroke-dasharray: none; stroke-linecap: butt; stroke-dashoffset: 0; stroke-linejoin: miter; stroke-miterlimit: 4; is-custom-font: none; font-file-url: none; fill: rgb(233,238,242); fill-rule: nonzero; opacity: 1;" transform=" translate(-162.4063, -82.0715)" d="M 65.05517578125 55.00048828125 q 0 -0.5390625 0.387451171875 -0.892822265625 t 0.90966796875 -0.555908203125 t 1.1455078125 -0.26953125 t 1.094970703125 -0.0673828125 q 0.97705078125 0 2.072021484375 0.26953125 t 1.634033203125 1.17919921875 q 0.97705078125 1.65087890625 1.431884765625 3.925048828125 t 0.859130859375 4.363037109375 q 0.6064453125 2.8974609375 1.5498046875 6.064453125 t 1.970947265625 6.451904296875 t 2.105712890625 6.451904296875 t 1.88671875 5.9296875 q 0.97705078125 -4.07666015625 1.802490234375 -8.35546875 t 1.58349609375 -8.5576171875 t 1.58349609375 -8.5576171875 t 1.802490234375 -8.38916015625 q 0.2021484375 -0.97705078125 0.30322265625 -2.45947265625 t 0.421142578125 -2.86376953125 t 0.926513671875 -2.375244140625 t 1.85302734375 -0.993896484375 q 1.31396484375 0 1.768798828125 0.724365234375 t 0.454833984375 2.105712890625 q -0.3369140625 3.80712890625 -1.094970703125 7.546875 t -1.398193359375 7.4794921875 q -0.90966796875 4.61572265625 -1.970947265625 9.248291015625 t -1.98779296875 9.281982421875 t -1.58349609375 9.315673828125 t -0.791748046875 9.349365234375 q 0.0673828125 0.2021484375 0.2021484375 0.4716796875 t 0.134765625 0.404296875 q 0 0.404296875 -0.37060546875 0.758056640625 t -0.926513671875 0.6064453125 t -1.212890625 0.387451171875 t -1.229736328125 0.134765625 q -0.5390625 0 -1.229736328125 -0.0673828125 t -1.38134765625 -0.252685546875 t -1.212890625 -0.488525390625 t -0.656982421875 -0.77490234375 q -0.5390625 -1.58349609375 -0.993896484375 -3.082763671875 t -0.859130859375 -3.082763671875 q -1.92041015625 -6.90673828125 -4.026123046875 -13.560791015625 t -3.891357421875 -13.527099609375 q -0.84228515625 -3.099609375 -1.263427734375 -6.081298828125 t -1.364501953125 -5.879150390625 q 0.134765625 0.26953125 0.134765625 0.43798828125 q -0.134765625 -0.4716796875 -0.26953125 -0.892822265625 t -0.30322265625 -0.926513671875 q 0 0.134765625 0.03369140625 0.16845703125 t 0.03369140625 0.10107421875 q 0 -0.0673828125 -0.03369140625 -0.10107421875 t -0.03369140625 -0.10107421875 z M 100.82433105469 90.0732421875 q 0 -1.92041015625 0.488525390625 -3.958740234375 t 1.5498046875 -3.67236328125 t 2.678466796875 -2.66162109375 t 3.908203125 -1.027587890625 q 1.71826171875 0 3.621826171875 0.589599609375 t 3.487060546875 1.6845703125 t 2.577392578125 2.678466796875 t 0.993896484375 3.53759765625 q 0 2.3583984375 -0.859130859375 4.48095703125 t -2.408935546875 3.790283203125 t -3.621826171875 2.6279296875 t -4.497802734375 0.960205078125 q -1.98779296875 0 -3.47021484375 -0.724365234375 t -2.476318359375 -1.937255859375 t -1.482421875 -2.86376953125 t -0.488525390625 -3.50390625 z M 105.77696777344 90.005859375 q 0 0.6064453125 0.185302734375 1.78564453125 t 0.555908203125 2.307861328125 t 0.960205078125 1.9541015625 t 1.431884765625 0.758056640625 q 1.78564453125 -0.2021484375 2.947998046875 -1.162353515625 t 1.88671875 -2.341552734375 t 1.0107421875 -2.99853515625 t 0.286376953125 -3.06591796875 q 0 -1.85302734375 -0.724365234375 -3.099609375 t -2.375244140625 -2.021484375 q 0 0.0673828125 0.0673828125 0.0673828125 t 0.0673828125 -0.0673828125 l -0.84228515625 -0.2021484375 q -0.3369140625 -0.134765625 -0.825439453125 -0.30322265625 t -0.960205078125 -0.7412109375 q -1.31396484375 0.4716796875 -2.038330078125 1.212890625 t -1.094970703125 1.802490234375 t -0.454833984375 2.543701171875 t -0.084228515625 3.5712890625 z M 126.35129882813 81.919921875 q 0 -0.97705078125 0.555908203125 -1.2802734375 t 1.398193359375 -0.30322265625 q 1.38134765625 0 2.105712890625 0.522216796875 t 0.724365234375 1.836181640625 q 0 1.58349609375 0.23583984375 3.958740234375 t 0.690673828125 4.61572265625 t 1.078125 3.857666015625 t 1.297119140625 1.6171875 q 1.24658203125 0 2.206787109375 -1.92041015625 t 1.6845703125 -4.716796875 t 1.24658203125 -6.013916015625 t 0.724365234375 -5.744384765625 q 0.134765625 -1.38134765625 0.656982421875 -2.004638671875 t 1.903564453125 -0.623291015625 q 1.58349609375 0 2.307861328125 1.31396484375 t 0.926513671875 3.234375 q 0.16845703125 1.65087890625 0.16845703125 3.4365234375 l 0 0.57275390625 l 0 1.34765625 q 0 1.2802734375 0.03369140625 2.291015625 l 0.97705078125 20.65283203125 l 0.134765625 3.4365234375 q 0.0673828125 0.4716796875 0.10107421875 0.892822265625 t 0.03369140625 0.892822265625 q 0 1.92041015625 -0.825439453125 2.476318359375 t -2.678466796875 0.555908203125 q -0.404296875 0 -1.027587890625 -0.0673828125 t -1.212890625 -0.26953125 t -1.0107421875 -0.555908203125 t -0.421142578125 -0.892822265625 l 0.134765625 -0.3369140625 q 0.16845703125 -2.021484375 0.16845703125 -4.2451171875 l 0 -0.70751953125 q -0.03369140625 -2.6279296875 -0.16845703125 -5.3232421875 t -0.30322265625 -5.390625 t -0.16845703125 -5.1884765625 q -0.4716796875 1.04443359375 -1.094970703125 2.15625 t -1.44873046875 2.004638671875 t -1.869873046875 1.482421875 t -2.3583984375 0.589599609375 q -1.92041015625 0 -3.1669921875 -1.0107421875 t -1.937255859375 -2.6279296875 t -0.993896484375 -3.621826171875 t -0.404296875 -4.00927734375 t -0.134765625 -3.823974609375 t -0.26953125 -3.06591796875 z M 154.43881347656 89.43310546875 q 0 -2.291015625 0.623291015625 -4.41357421875 t 1.869873046875 -3.790283203125 t 3.116455078125 -2.66162109375 t 4.329345703125 -0.993896484375 q 1.51611328125 0 3.352294921875 0.454833984375 t 3.453369140625 1.34765625 t 2.6953125 2.274169921875 t 1.078125 3.1669921875 q 0 0.84228515625 -0.286376953125 1.2802734375 t -1.162353515625 0.43798828125 l -0.37060546875 -0.0673828125 q 0.97705078125 2.6279296875 1.6845703125 5.390625 t 1.38134765625 5.525390625 q 0.26953125 0.5390625 0.404296875 0.960205078125 t 0.134765625 0.825439453125 q 0 0.5390625 -0.30322265625 0.892822265625 t -0.791748046875 0.522216796875 t -1.0107421875 0.23583984375 t -0.926513671875 0.0673828125 q -1.44873046875 0 -2.173095703125 -0.50537109375 t -1.04443359375 -1.38134765625 t -0.387451171875 -1.970947265625 t -0.26953125 -2.206787109375 q -0.404296875 1.31396484375 -1.061279296875 2.560546875 t -1.5498046875 2.240478515625 t -2.105712890625 1.58349609375 t -2.72900390625 0.589599609375 q -2.2236328125 0 -3.73974609375 -1.2802734375 t -2.442626953125 -3.150146484375 t -1.34765625 -3.992431640625 t -0.421142578125 -3.94189453125 z M 159.22299316406 88.96142578125 q 0 1.24658203125 0.16845703125 2.6279296875 t 0.555908203125 2.72900390625 t 0.993896484375 2.543701171875 t 1.51611328125 2.105712890625 q 1.65087890625 -1.78564453125 2.442626953125 -4.34619140625 t 1.4150390625 -4.935791015625 t 1.4150390625 -4.07666015625 t 2.442626953125 -1.701416015625 q 1.04443359375 0 1.751953125 0.37060546875 q -0.3369140625 -0.84228515625 -1.11181640625 -1.634033203125 t -1.735107421875 -1.44873046875 t -1.98779296875 -1.078125 t -1.937255859375 -0.421142578125 q -0.26953125 0 -0.623291015625 0.084228515625 t -0.555908203125 0.016845703125 q -1.38134765625 0.404296875 -2.274169921875 1.398193359375 t -1.44873046875 2.341552734375 t -0.791748046875 2.7626953125 t -0.23583984375 2.66162109375 z M 183.63814453125 88.25390625 q 0 -1.85302734375 0.353759765625 -3.958740234375 t 1.212890625 -3.857666015625 t 2.375244140625 -2.8974609375 t 3.87451171875 -1.1455078125 q 1.58349609375 0 3.06591796875 0.522216796875 t 2.79638671875 1.431884765625 q 0.404296875 -0.673828125 1.2802734375 -0.825439453125 t 1.5498046875 -0.151611328125 q 0.26953125 0 0.758056640625 0.03369140625 t 0.960205078125 0.2021484375 t 0.825439453125 0.404296875 t 0.421142578125 0.673828125 q 0.26953125 2.3583984375 0.37060546875 4.699951171875 t 0.30322265625 4.666259765625 q 0.3369140625 4.34619140625 1.04443359375 8.59130859375 t 0.70751953125 8.59130859375 q 0 2.05517578125 -0.185302734375 4.447265625 t -0.97705078125 4.430419921875 t -2.307861328125 3.385986328125 t -4.21142578125 1.34765625 q -2.42578125 0 -3.722900390625 -0.859130859375 t -2.341552734375 -2.880615234375 q 0.0673828125 -0.673828125 0.859130859375 -0.892822265625 t 1.364501953125 -0.218994140625 q 0.5390625 0 1.094970703125 0.10107421875 t 0.892822265625 0.3369140625 l 0.84228515625 0.5390625 q 1.24658203125 -2.560546875 1.51611328125 -5.5927734375 t 0.26953125 -5.8623046875 q 0 -2.3583984375 -0.23583984375 -4.666259765625 t -0.4716796875 -4.632568359375 q -2.3583984375 4.27880859375 -7.17626953125 4.27880859375 q -2.2236328125 0 -3.621826171875 -0.943359375 t -2.15625 -2.39208984375 t -1.04443359375 -3.26806640625 t -0.286376953125 -3.638671875 z M 187.7821875 88.55712890625 q 0 0.84228515625 0.0673828125 2.173095703125 t 0.353759765625 2.611083984375 t 0.825439453125 2.206787109375 t 1.51611328125 0.926513671875 q 1.85302734375 0 2.93115234375 -1.44873046875 t 1.701416015625 -3.453369140625 t 0.993896484375 -4.14404296875 t 0.943359375 -3.520751953125 q -0.0673828125 -0.4716796875 -0.0673828125 -0.926513671875 l 0 -0.926513671875 q -0.77490234375 -1.44873046875 -2.25732421875 -2.510009765625 t -3.06591796875 -1.431884765625 q -0.2021484375 -0.03369140625 -0.37060546875 -0.03369140625 q -0.943359375 0 -1.5498046875 1.11181640625 q -0.77490234375 1.34765625 -1.212890625 3.217529296875 t -0.623291015625 3.689208984375 t -0.185302734375 2.45947265625 z M 212.43317871094 90.814453125 q 0 -2.3583984375 0.522216796875 -5.55908203125 t 1.768798828125 -6.064453125 t 3.284912109375 -4.868408203125 t 5.137939453125 -2.004638671875 q 2.8974609375 0 4.34619140625 1.667724609375 t 1.44873046875 4.497802734375 q 0 1.85302734375 -0.690673828125 4.059814453125 t -1.970947265625 4.177734375 t -3.0322265625 3.284912109375 t -3.908203125 1.31396484375 l -0.8759765625 -0.0673828125 q 0 0.90966796875 0.26953125 2.442626953125 t 0.791748046875 3.049072265625 t 1.34765625 2.66162109375 t 2.004638671875 1.1455078125 q 1.71826171875 0 3.3017578125 -1.38134765625 t 2.99853515625 -3.06591796875 t 2.6279296875 -3.06591796875 t 2.2236328125 -1.38134765625 q 0.5390625 0 1.11181640625 0.16845703125 t 0.64013671875 0.943359375 q 0 0.4716796875 -0.252685546875 0.77490234375 t -0.454833984375 0.673828125 q -1.04443359375 1.78564453125 -2.274169921875 3.40283203125 t -2.779541015625 2.93115234375 t -3.385986328125 2.072021484375 t -4.059814453125 0.758056640625 q -2.8974609375 0 -4.81787109375 -1.027587890625 t -3.099609375 -2.7626953125 t -1.701416015625 -4.00927734375 t -0.522216796875 -4.767333984375 z M 218.46394042969 88.25390625 l 0.943359375 0.84228515625 q 0.673828125 0.6064453125 1.34765625 0.26953125 t 1.212890625 -1.229736328125 t 0.993896484375 -2.206787109375 t 0.80859375 -2.6953125 t 0.522216796875 -2.6953125 t 0.16845703125 -2.18994140625 l 0 -1.1455078125 t -0.10107421875 -1.212890625 t -0.353759765625 -0.960205078125 t -0.791748046875 -0.488525390625 q -0.16845703125 -0.03369140625 -0.30322265625 -0.03369140625 q -1.1455078125 0 -1.9541015625 1.44873046875 q -0.8759765625 1.6171875 -1.4150390625 3.925048828125 t -0.77490234375 4.733642578125 t -0.30322265625 3.638671875 z M 240.58807617188 79.99951171875 q 0 -1.38134765625 0.488525390625 -2.32470703125 t 2.072021484375 -0.943359375 q 0.6064453125 0 1.51611328125 0.185302734375 t 1.04443359375 0.926513671875 q 0.3369140625 1.98779296875 0.37060546875 4.3125 t 0.23583984375 4.3798828125 q 0.77490234375 -1.51611328125 1.98779296875 -3.26806640625 t 2.7626953125 -3.234375 t 3.369140625 -2.45947265625 t 3.7060546875 -0.97705078125 q 0.134765625 0 0.50537109375 0.10107421875 t 0.690673828125 0.286376953125 t 0.387451171875 0.421142578125 t -0.37060546875 0.43798828125 q -0.134765625 0.404296875 -0.57275390625 0.488525390625 t -0.77490234375 0.084228515625 q -0.2021484375 0 -0.64013671875 -0.16845703125 q -2.4931640625 1.31396484375 -4.2451171875 3.5712890625 t -2.86376953125 5.003173828125 t -1.6171875 5.794921875 t -0.50537109375 5.946533203125 q 0 1.44873046875 -0.656982421875 1.751953125 t -2.105712890625 0.30322265625 q -0.77490234375 0 -1.634033203125 -0.16845703125 t -1.196044921875 -1.078125 q -0.6064453125 -1.92041015625 -0.993896484375 -4.41357421875 t -0.589599609375 -5.137939453125 t -0.286376953125 -5.205322265625 t -0.084228515625 -4.61572265625 z" stroke-linecap="round"/>
</g>
		<g transform="matrix(1 0 0 1 -165.5 -67.5)">
<path style="stroke: none; stroke-width: 1; stroke-dasharray: none; stroke-linecap: butt; stroke-dashoffset: 0; stroke-linejoin: miter; stroke-miterlimit: 4; is-custom-font: none; font-file-url: none; fill: rgb(0,0,0); fill-rule: nonzero; opacity: 1;" transform=" translate(0, 0)" d="" stroke-linecap="round"/>
</g>
</g>
</g>
</svg>